Coordinates
version=1
nRows=22
nColumns=24
inDegrees=yes

Units are S.I. units (second, meters, Newtons, ...)
Angles are in degrees.

endheader
time	pelvis_tilt	pelvis_list	pelvis_rotation	pelvis_tx	pelvis_ty	pelvis_tz	hip_flexion_r	hip_adduction_r	hip_rotation_r	knee_angle_r	ankle_angle_r	subtalar_angle_r	mtp_angle_r	hip_flexion_l	hip_adduction_l	hip_rotation_l	knee_angle_l	ankle_angle_l	subtalar_angle_l	mtp_angle_l	lumbar_extension	lumbar_bending	lumbar_rotation
      0.01000000	     91.37536919	     31.97792182	    -92.05246371	      1.02086619	      0.28715341	      1.07658645	     19.30547984	     -6.72522209	     -4.81148023	    -13.28860362	    -13.51056806	      0.00000000	      0.00000000	      8.98735958	     -7.42584440	     -5.73432187	    -70.21241397	    -10.96840415	      0.00000000	      0.00000000	      0.00000000	      0.00000000	      0.00000000
      0.02000000	     91.38894831	     32.01748832	    -92.04277480	      1.02094880	      0.28720325	      1.07660754	     19.33925088	     -6.74813379	     -4.77980815	    -13.30009862	    -13.50458068	      0.00000000	      0.00000000	      9.03568339	     -7.39336527	     -5.68375795	    -70.21714973	    -10.96565556	      0.00000000	      0.00000000	      0.00000000	      0.00000000	      0.00000000
      0.03000000	     91.40496065	     32.05879751	    -92.02912943	      1.02098188	      0.28722300	      1.07658396	     19.37589243	     -6.77726307	     -4.75352922	    -13.31222885	    -13.49997600	      0.00000000	      0.00000000	      9.08997105	     -7.35623332	     -5.62979327	    -70.22381219	    -10.96311225	      0.00000000	      0.00000000	      0.00000000	      0.00000000	      0.00000000
      0.04000000	     91.42368052	     32.09974306	    -92.01148703	      1.02097347	      0.28723830	      1.07651947	     19.41480515	     -6.81145613	     -4.73536885	    -13.32442448	    -13.49704998	      0.00000000	      0.00000000	      9.14895941	     -7.31571940	     -5.57438339	    -70.23282375	    -10.96112513	      0.00000000	      0.00000000	      0.00000000	      0.00000000	      0.00000000
      0.05000000	     91.44431322	     32.13741428	    -91.99112813	      1.02094704	      0.28728145	      1.07643238	     19.45407255	     -6.84763452	     -4.72744941	    -13.33595289	    -13.49575072	      0.00000000	      0.00000000	      9.20925794	     -7.27488080	     -5.52100759	    -70.24426625	    -10.96017349	      0.00000000	      0.00000000	      0.00000000	      0.00000000	      0.00000000
      0.06000000	     91.46392988	     32.16939513	    -91.97104835	      1.02092600	      0.28735090	      1.07634661	     19.49011065	     -6.88120865	     -4.72954981	    -13.34629779	    -13.49540726	      0.00000000	      0.00000000	      9.26504840	     -7.23826470	     -5.47414623	    -70.25753173	    -10.96074365	      0.00000000	      0.00000000	      0.00000000	      0.00000000	      0.00000000
      0.07000000	     91.47816762	     32.19395175	    -91.95492938	      1.02091738	      0.28740471	      1.07627642	     19.51848371	     -6.90720009	     -4.73854961	    -13.35525430	    -13.49478735	      0.00000000	      0.00000000	      9.30943498	     -7.21102629	     -5.43868319	    -70.27132248	    -10.96314502	      0.00000000	      0.00000000	      0.00000000	      0.00000000	      0.00000000
      0.08000000	     91.48372041	     32.20898465	    -91.94534463	      1.02091893	      0.28741858	      1.07622899	     19.53537927	     -6.92165142	     -4.74940148	    -13.36274639	    -13.49245172	      0.00000000	      0.00000000	      9.33723670	     -7.19809940	     -5.41949874	    -70.28404512	    -10.96729442	      0.00000000	      0.00000000	      0.00000000	      0.00000000	      0.00000000
      0.09000000	     91.47984104	     32.21265476	    -91.94288570	      1.02092641	      0.28740755	      1.07620836	     19.53869991	     -6.92304848	     -4.75699818	    -13.36871631	    -13.48726796	      0.00000000	      0.00000000	      9.34650613	     -7.20255079	     -5.42025317	    -70.29431929	    -10.97256511	      0.00000000	      0.00000000	      0.00000000	      0.00000000	      0.00000000
      0.10000000	     91.46806752	     32.20537726	    -91.94674243	      1.02094023	      0.28739066	      1.07621631	     19.52865850	     -6.91292585	     -4.75792678	    -13.37310979	    -13.47892475	      0.00000000	      0.00000000	      9.33812894	     -7.22342413	     -5.44104656	    -70.30103273	    -10.97777764	      0.00000000	      0.00000000	      0.00000000	      0.00000000	      0.00000000
      0.11000000	     91.45157413	     32.19040488	    -91.95559844	      1.02097191	      0.28736907	      1.07625509	     19.50805261	     -6.89527290	     -4.75135187	    -13.37583322	    -13.46824115	      0.00000000	      0.00000000	      9.31523589	     -7.25476836	     -5.47648230	    -70.30290579	    -10.98137911	      0.00000000	      0.00000000	      0.00000000	      0.00000000	      0.00000000
      0.12000000	     91.43459544	     32.17264190	    -91.96776811	      1.02102329	      0.28733212	      1.07632027	     19.48193059	     -6.87537837	     -4.73881392	    -13.37673102	    -13.45708293	      0.00000000	      0.00000000	      9.28292285	     -7.28673065	     -5.51604625	    -70.29840870	    -10.98185587	      0.00000000	      0.00000000	      0.00000000	      0.00000000	      0.00000000
      0.13000000	     91.42169384	     32.15659727	    -91.98085168	      1.02107100	      0.28728254	      1.07639533	     19.45635952	     -6.85871617	     -4.72325649	    -13.37571177	    -13.44787151	      0.00000000	      0.00000000	      9.24793574	     -7.30882371	     -5.54742636	    -70.28652312	    -10.97831597	      0.00000000	      0.00000000	      0.00000000	      0.00000000	      0.00000000
      0.14000000	     91.41641273	     32.14494632	    -91.99190854	      1.02108697	      0.28724261	      1.07645479	     19.43661115	     -6.84978446	     -4.70786337	    -13.37302349	    -13.44287407	      0.00000000	      0.00000000	      9.21744595	     -7.31391476	     -5.56126287	    -70.26783477	    -10.97100178	      0.00000000	      0.00000000	      0.00000000	      0.00000000	      0.00000000
      0.15000000	     91.41973147	     32.13850229	    -91.99852580	      1.02106608	      0.28722916	      1.07647779	     19.42548235	     -6.85082850	     -4.69521436	    -13.36954752	    -13.44353165	      0.00000000	      0.00000000	      9.19691937	     -7.30097829	     -5.55478986	    -70.24512356	    -10.96145041	      0.00000000	      0.00000000	      0.00000000	      0.00000000	      0.00000000
      0.16000000	     91.42963728	     32.13674519	    -91.99995759	      1.02102553	      0.28724070	      1.07646559	     19.42260031	     -6.86088995	     -4.68696737	    -13.36681553	    -13.45003885	      0.00000000	      0.00000000	      9.18846855	     -7.27548224	     -5.53268778	    -70.22294338	    -10.95216021	      0.00000000	      0.00000000	      0.00000000	      0.00000000	      0.00000000
      0.17000000	     91.44207362	     32.13827915	    -91.99730581	      1.02098045	      0.28726164	      1.07643552	     19.42515239	     -6.87597204	     -4.68394980	    -13.36655482	    -13.46131558	      0.00000000	      0.00000000	      9.19045470	     -7.24701065	     -5.50497516	    -70.20632833	    -10.94583649	      0.00000000	      0.00000000	      0.00000000	      0.00000000	      0.00000000
      0.18000000	     91.45281426	     32.14097756	    -91.99269935	      1.02094286	      0.28727715	      1.07640189	     19.42951443	     -6.89075403	     -4.68638129	    -13.37004344	    -13.47538505	      0.00000000	      0.00000000	      9.19857675	     -7.22549344	     -5.48300101	    -70.19924513	    -10.94446731	      0.00000000	      0.00000000	      0.00000000	      0.00000000	      0.00000000
      0.19000000	     91.45916432	     32.14235449	    -91.98827585	      1.02093854	      0.28728446	      1.07637761	     19.43268065	     -6.90104762	     -4.69398386	    -13.37785223	    -13.48996580	      0.00000000	      0.00000000	      9.20791863	     -7.21770396	     -5.47510775	    -70.20324042	    -10.94856519	      0.00000000	      0.00000000	      0.00000000	      0.00000000	      0.00000000
      0.20000000	     91.46047532	     32.14084999	    -91.98547067	      1.02098092	      0.28728122	      1.07637397	     19.43293105	     -6.90544468	     -4.70590973	    -13.39008579	    -13.50298512	      0.00000000	      0.00000000	      9.21465308	     -7.22471458	     -5.48347054	    -70.21647761	    -10.95685524	      0.00000000	      0.00000000	      0.00000000	      0.00000000	      0.00000000
      0.21000000	     91.45816198	     32.13645937	    -91.98463528	      1.02104376	      0.28727082	      1.07638764	     19.43014069	     -6.90535205	     -4.72058840	    -13.40648859	    -13.51285722	      0.00000000	      0.00000000	      9.21712694	     -7.24166984	     -5.50339346	    -70.23367408	    -10.96653711	      0.00000000	      0.00000000	      0.00000000	      0.00000000	      0.00000000
      0.22000000	     91.45507481	     32.13031663	    -91.98529008	      1.02109238	      0.28726611	      1.07640637	     19.42591293	     -6.90366253	     -4.73567799	    -13.42614142	    -13.51860061	      0.00000000	      0.00000000	      9.21574668	     -7.25996026	     -5.52539526	    -70.24752539	    -10.97410363	      0.00000000	      0.00000000	      0.00000000	      0.00000000	      0.00000000
